<?xml version="1.0" standalone="no"?><svg xmlns="http://www.w3.org/2000/svg" viewBox="0 0 1440 320"><path fill="#00cba9" fill-opacity="1" d="M0,288L30,293.3C60,299,120,309,180,304C240,299,300,277,360,272C420,267,480,277,540,261.3C600,245,660,203,720,186.7C780,171,840,181,900,208C960,235,1020,277,1080,266.7C1140,256,1200,192,1260,160C1320,128,1380,128,1410,128L1440,128L1440,320L1410,320C1380,320,1320,320,1260,320C1200,320,1140,320,1080,320C1020,320,960,320,900,320C840,320,780,320,720,320C660,320,600,320,540,320C480,320,420,320,360,320C300,320,240,320,180,320C120,320,60,320,30,320L0,320Z"></path></svg>